<?xml version="1.0" standalone="no"?>
<!DOCTYPE svg PUBLIC "-//W3C//DTD SVG 20010904//EN"
 "http://www.w3.org/TR/2001/REC-SVG-20010904/DTD/svg10.dtd">
<svg version="1.0" xmlns="http://www.w3.org/2000/svg"
 width="26.667pt" height="18.917pt" viewBox="0 0 320.000000 227.000000"
 preserveAspectRatio="xMidYMid meet">
<metadata>
Created by potrace 1.15, written by Peter Selinger 2001-2017
</metadata>
<g transform="translate(0.000000,227.000000) scale(0.100000,-0.100000)"
fill="#F44336" stroke="none">
<path d="M680 1590 c-206 -209 -377 -383 -380 -386 -2 -2 68 -77 155 -164
l160 -160 220 220 220 220 220 -220 220 -220 162 162 163 163 -383 382 -382
382 -375 -379z m452 133 c38 -37 68 -72 68 -78 0 -6 -32 -42 -71 -80 l-70 -68
-75 74 -75 75 73 72 c40 40 75 72 78 72 2 0 35 -30 72 -67z m-234 -245 l73
-71 -173 -174 c-95 -95 -177 -173 -183 -173 -6 0 -42 32 -80 70 l-70 70 175
175 c96 96 177 175 180 175 3 0 38 -32 78 -72z m575 -98 c92 -93 167 -173 167
-178 0 -4 -32 -39 -70 -77 l-70 -70 -177 178 -178 177 70 70 c38 38 74 70 80
70 6 0 86 -76 178 -170z"/>
<path d="M2205 1580 l-380 -380 383 -382 382 -383 162 162 161 161 -221 224
-222 223 220 220 220 220 -158 158 c-86 86 -159 157 -162 157 -3 0 -176 -171
-385 -380z m457 143 c38 -37 68 -72 68 -78 0 -6 -78 -88 -173 -183 l-172 -172
-75 75 -75 75 175 175 c96 96 177 175 180 175 2 0 35 -30 72 -67z m-373 -518
c1 -12 -130 -145 -144 -145 -5 1 -41 32 -80 70 l-70 69 75 76 74 75 72 -68
c39 -37 72 -71 73 -77z m271 -270 l174 -175 -34 -36 c-19 -21 -53 -55 -74 -76
l-40 -39 -173 173 c-95 95 -173 177 -173 183 0 10 130 145 140 145 3 0 84 -79
180 -175z"/>
</g>
</svg>
