<?xml version="1.0" standalone="no"?>
<!DOCTYPE svg PUBLIC "-//W3C//DTD SVG 20010904//EN"
 "http://www.w3.org/TR/2001/REC-SVG-20010904/DTD/svg10.dtd">
<svg version="1.0" xmlns="http://www.w3.org/2000/svg"
 width="120.000000pt" height="72.50000pt" viewBox="0 0 350.000000 425.000000"
 preserveAspectRatio="xMidYMid meet">
<metadata>
Created by potrace 1.15, written by Peter Selinger 2001-2017
</metadata>
<g transform="translate(0.000000,435.000000) scale(0.100000,-0.100000)"
fill="#000000" stroke="none">
<g fill="#F44336">
    <path d="M2297 3422 c-284 -284 -517 -522 -517 -527 0 -6 99 -109 220 -230
    l220 -220 300 300 300 300 297 -297 c164 -164 300 -298 303 -298 3 0 102 97
    220 215 l215 215 517 -517 518 -518 227 228 228 227 -300 300 -300 300 298
    298 297 297 -225 225 -225 225 -518 -518 -517 -517 -515 515 c-283 283 -517
    515 -520 515 -3 0 -238 -233 -523 -518z m2551 -159 l-233 -233 -92 92 -93 93
    232 232 233 233 92 -92 93 -93 -232 -232z m-1933 317 l90 -90 -93 -93 -92 -92
    -92 92 -93 93 90 90 c49 49 92 90 95 90 3 0 46 -41 95 -90z m-457 -637 l-233
    -233 -92 92 -93 93 232 232 233 233 92 -92 93 -93 -232 -232z m1050 -140 l-93
    -93 -232 232 -233 233 92 92 93 93 232 -232 233 -233 -92 -92z m880 0 l-93
    -93 -92 92 -93 93 92 92 93 93 92 -92 93 -93 -92 -92z m457 -273 l230 -230
    -93 -92 -92 -93 -232 232 -233 233 90 90 c49 49 92 90 95 90 3 0 109 -104 235
    -230z"/>
</g>
<g fill="#f7f7f7"> 
    <path d="M991 932 c-30 -158 -57 -297 -59 -310 -4 -22 -2 -23 48 -20 57 3 57
    3 74 81 6 24 11 27 46 27 35 0 40 -3 46 -27 17 -78 17 -78 74 -81 50 -3 52 -2
    48 20 -2 13 -29 152 -59 310 l-54 288 -55 0 -55 0 -54 -288z"/>
    <path d="M1365 1206 c-41 -18 -73 -56 -85 -97 -6 -19 -10 -111 -10 -204 0
    -157 2 -174 23 -215 13 -26 36 -53 56 -64 45 -26 117 -26 162 0 43 25 79 94
    79 151 l0 43 -55 0 -55 0 0 -38 c0 -21 -5 -43 -12 -50 -19 -19 -66 -15 -78 7
    -6 11 -10 88 -10 179 0 141 2 161 18 175 38 35 82 9 82 -49 l0 -34 56 0 56 0
    -4 55 c-5 59 -24 94 -70 128 -34 25 -113 32 -153 13z"/>
    <path d="M1651 956 c-28 -144 -54 -284 -57 -310 l-7 -47 54 3 54 3 9 53 9 52
    43 0 42 0 9 -52 8 -53 53 -3 c49 -3 52 -2 52 21 0 20 -57 329 -101 545 l-10
    52 -54 0 -53 0 -51 -264z"/>
    <path d="M1950 909 l0 -311 113 3 c132 5 164 20 192 93 25 64 19 419 -8 459
    -35 54 -71 67 -189 67 l-108 0 0 -311z m198 189 c8 -8 12 -64 12 -184 0 -193
    -4 -204 -66 -204 l-34 0 0 200 0 200 38 0 c21 0 43 -5 50 -12z"/>
    <path d="M2292 913 l3 -308 148 -3 147 -3 0 56 0 55 -95 0 -95 0 0 90 0 90 65
    0 65 0 0 55 0 55 -65 0 -65 0 0 55 0 55 95 0 95 0 0 55 0 55 -150 0 -150 0 2
    -307z"/>
    <path d="M2622 913 l3 -308 53 -3 52 -3 1 98 1 98 27 -95 26 -95 52 -3 51 -3
    16 55 c9 31 20 70 24 88 5 26 8 15 12 -52 l5 -85 53 -3 52 -3 0 310 0 311 -53
    0 -52 0 -39 -147 c-21 -82 -46 -170 -54 -198 l-15 -50 -43 160 c-71 265 -56
    235 -120 235 l-54 0 2 -307z"/>
    <path d="M3100 909 l0 -310 53 3 52 3 3 308 2 307 -55 0 -55 0 0 -311z"/>
    <path d="M3350 1212 c0 -5 -25 -136 -55 -293 -30 -156 -55 -292 -55 -302 0
    -15 7 -18 53 -15 l52 3 9 53 10 52 42 0 c40 0 42 -1 48 -37 13 -73 13 -73 66
    -73 27 0 51 3 53 8 3 4 -22 142 -54 307 -32 165 -58 301 -59 303 -1 6 -110 1
    -110 -6z"/>
    <path d="M3640 910 l0 -312 93 4 c103 4 136 19 165 72 14 25 18 65 20 217 4
    209 -3 251 -48 294 -30 28 -36 30 -131 33 l-99 4 0 -312z m179 245 c16 -8 31
    -22 35 -30 3 -9 6 -106 6 -216 0 -199 0 -200 -25 -224 -20 -21 -34 -25 -85
    -25 l-60 0 0 255 0 255 50 0 c28 0 64 -7 79 -15z"/>
    <path d="M3942 913 l3 -308 133 -3 132 -3 0 31 0 30 -105 0 -105 0 0 125 0
    125 70 0 70 0 0 30 0 30 -70 0 -70 0 0 100 0 100 105 0 105 0 0 25 0 25 -135
    0 -135 0 2 -307z"/>
    <path d="M4322 1204 c-18 -9 -43 -31 -55 -48 -21 -29 -22 -43 -25 -225 -2
    -107 -1 -205 3 -218 3 -12 19 -38 36 -58 39 -44 93 -60 152 -44 76 20 117 75
    117 159 l0 50 -54 0 -55 0 -3 -41 c-4 -54 -33 -77 -66 -53 -21 15 -22 21 -22
    188 0 180 4 196 45 196 31 0 45 -19 45 -62 l0 -38 55 0 55 0 0 46 c0 57 -23
    108 -63 136 -40 29 -121 34 -165 12z"/>
    <path d="M4662 1204 c-18 -9 -43 -31 -55 -48 -21 -29 -22 -43 -25 -236 -3
    -200 -3 -206 20 -240 32 -48 81 -74 140 -74 54 0 89 21 126 74 21 31 22 42 22
    232 0 171 -2 204 -17 229 -22 36 -32 36 -67 0 l-28 -30 1 -183 c1 -101 -2
    -188 -6 -194 -14 -19 -40 -23 -62 -8 -20 14 -21 23 -21 189 l0 174 31 16 c28
    15 30 19 27 63 -3 42 -6 47 -28 50 -14 1 -40 -5 -58 -14z"/>
    <path d="M4932 913 l3 -308 110 0 c124 0 150 10 185 68 18 29 20 51 20 240 0
    231 -5 252 -63 287 -27 17 -51 20 -145 20 l-112 0 2 -307z m206 3 c3 -209 4
    -206 -60 -206 l-38 0 0 201 0 200 48 -3 47 -3 3 -189z"/>
    <path d="M5295 1207 c-3 -7 -4 -145 -3 -307 l3 -295 55 0 55 0 3 308 2 307
    -55 0 c-36 0 -57 -5 -60 -13z"/>
    <path d="M5542 1204 c-18 -9 -43 -31 -55 -48 -21 -29 -22 -43 -25 -236 -3
    -200 -3 -206 20 -239 43 -64 66 -74 183 -79 l105 -5 0 172 0 171 -90 0 -90 0
    0 -55 0 -55 35 0 35 0 0 -60 c0 -56 -2 -60 -23 -60 -12 0 -33 7 -45 16 -21 15
    -22 21 -22 188 0 180 4 196 45 196 31 0 45 -19 45 -62 l0 -38 55 0 55 0 0 46
    c0 57 -23 108 -63 136 -40 29 -121 34 -165 12z"/>
    <path d="M5895 1206 c-37 -17 -70 -52 -84 -89 -6 -16 -11 -104 -11 -206 0
    -164 2 -180 23 -221 28 -55 74 -84 137 -84 63 0 109 29 138 84 22 43 23 54 20
    237 -3 209 -6 218 -70 266 -34 25 -113 32 -153 13z m97 -113 c16 -14 18 -34
    18 -178 0 -166 -4 -185 -43 -198 -11 -4 -25 1 -37 13 -18 18 -20 34 -20 182 0
    136 3 164 17 180 20 22 41 23 65 1z"/>
</g>

</g>
</svg>
