<svg data-name="Layer 1" xmlns="http://www.w3.org/2000/svg" width="200" height="90">
<path d="M53.53 80.67c-4.13-4.61-8.1-6.84-13.11-6.84-9 0-14.93 6.84-14.93 16.45 0 8.74 5.88 15.81 14.93 15.81 5 0 9-2.23 13.11-6.84v16.92a32.72 32.72 0 0 1-14.69 3.58C22.07 119.75 10 107.12 10 90s12.07-29.83 28.84-29.83a32.72 32.72 0 0 1 14.69 3.58zm183.03 30.42a30.55 30.55 0 0 1-21.56 8.74 30.09 30.09 0 0 1-21.45-8.74 29.53 29.53 0 0 1 0-42.26 31.2 31.2 0 0 1 43 0 29.56 29.56 0 0 1 0 42.26zM240 90a24.91 24.91 0 1 0-25 25.22A25 25 0 0 0 240 90zm41.84-25.22c-14.84 0-24.79 10.48-24.79 25.22 0 15.17 10.41 25.1 24.07 25.1a29.21 29.21 0 0 0 18.35-6.59l-.08 6a34.67 34.67 0 0 1-18 5.32c-17.08 0-29.87-12-29.87-29.87 0-17.48 13-29.71 29.87-29.71 7.23 0 13.43 2 18.51 6l-.16 5.72c-5.59-4.81-11.23-7.19-17.9-7.19zm32.06-3.26v37.1c0 11.12 5 16.6 15.57 16.6S345 109.74 345 98.62v-37.1h5.16V97c0 15.33-6.75 22.88-20.65 22.88s-20.7-7.6-20.7-22.88V61.52zM362 106.4a11.56 11.56 0 0 0 11.59 8.82c7.15 0 11.44-4.37 11.44-12 0-7-4.13-9.62-10.8-13.11-9-4.69-14.22-8.34-14.22-16.29s6-13.66 14.7-13.66c5.72 0 9.93 2.46 12.55 7.23l-4 2.38c-1.59-3.25-4.77-5-8.9-5-5.64 0-9.14 3.57-9.14 9.13 0 6.91 5.17 8.5 12.55 12.56C386.19 91 390 94.65 390 103.23c0 10.16-6.35 16.6-16.6 16.6-7.47 0-12.79-3.74-15.81-11zM78.95 96h18.58V83.84H78.95v-9.85h16.72l2.97-12.47H63.85v56.8h34.8v-12.71h-19.7V96zm64.65 9.06v-.01h-19.22V61.52h-15.49v56.8h31.56l3.15-13.26zm13.74-38.69h21.8l1.15-4.85h-28.11v56.8h5.16V89.01h19.99v-4.85h-19.99V66.37z" fill="#231f20"/></svg>