<svg width="60" height="60" viewBox="0 -30 512 511"  xmlns="http://www.w3.org/2000/svg">
    <g fill="#444">
        <path d="m60.035156 60.546875h30.023438v30h-30.023438zm0 0"/>
        <path d="m120.085938 60.546875h30.023437v30h-30.023437zm0 0"/>
        <path d="m180.132812 60.546875h30.023438v30h-30.023438zm0 0"/>
        <path d="m0 .5v451.953125h512v-451.953125zm482 30v90.097656h-452v-90.097656zm-452 391.953125v-271.855469h452v271.855469zm0 0"/>
        <path d="m187.644531 196.867188-70.550781 89.65625 70.550781 89.65625 23.574219-18.550782-55.949219-71.105468 55.949219-71.105469zm0 0"/>
        <path d="m300.78125 215.417969 55.949219 71.105469-55.949219 71.105468 23.574219 18.550782 70.550781-89.65625-70.550781-89.65625zm0 0"/>
        <path d="m241 196.46875h30v180.109375h-30zm0 0"/>
    </g>
</svg>
 