<?xml version="1.0" encoding="UTF-8" standalone="no"?>
<!-- Created with Inkscape (http://www.inkscape.org/) -->

<svg
   xmlns:dc="http://purl.org/dc/elements/1.1/"
   xmlns:cc="http://creativecommons.org/ns#"
   xmlns:rdf="http://www.w3.org/1999/02/22-rdf-syntax-ns#"
   xmlns:svg="http://www.w3.org/2000/svg"
   xmlns="http://www.w3.org/2000/svg"
   xmlns:sodipodi="http://sodipodi.sourceforge.net/DTD/sodipodi-0.dtd"
   xmlns:inkscape="http://www.inkscape.org/namespaces/inkscape"
   id="svg2"
   version="1.1"
   inkscape:version="0.91 r13725"
   xml:space="preserve"
   width="155.66"
   height="60.19"
   viewBox="0 0 622.6275 240.77"
   sodipodi:docname="Tecnico_logo.svg"><metadata
     id="metadata8"><rdf:RDF><cc:Work
         rdf:about=""><dc:format>image/svg+xml</dc:format><dc:type
           rdf:resource="http://purl.org/dc/dcmitype/StillImage" /><dc:title></dc:title></cc:Work></rdf:RDF></metadata><defs
     id="defs6" /><sodipodi:namedview
     pagecolor="#ffffff"
     bordercolor="#666666"
     borderopacity="1"
     objecttolerance="10"
     gridtolerance="10"
     guidetolerance="10"
     inkscape:pageopacity="0"
     inkscape:pageshadow="2"
     inkscape:window-width="913"
     inkscape:window-height="480"
     id="namedview4"
     showgrid="false"
     fit-margin-top="0"
     fit-margin-left="0"
     fit-margin-right="0"
     fit-margin-bottom="0"
     inkscape:zoom="0.51716523"
     inkscape:cx="311.3125"
     inkscape:cy="120.3875"
     inkscape:window-x="0"
     inkscape:window-y="0"
     inkscape:window-maximized="0"
     inkscape:current-layer="g10" /><g
     id="g10"
     inkscape:groupmode="layer"
     inkscape:label="ink_ext_XXXXXX"
     transform="matrix(1.25,0,0,-1.25,0,240.77)"><g
       id="g12"
       transform="scale(0.1,0.1)"><path
         d="m 2111.28,1651.77 -158.86,0 0,93.35 425.33,0 0,-93.35 -158.86,0 0,-466.89 -107.61,0 0,466.89"
         style="fill:#fff;fill-opacity:1;fill-rule:nonzero;stroke:none"
         id="path14"
         inkscape:connector-curvature="0" /><path
         d="m 2569.05,1838.52 c 40.14,24.4 79.45,48.79 113.62,74.85 l 40.13,-62.24 c -38.42,-27.75 -70.03,-46.25 -116.15,-69.83 l -37.6,57.22 z m -118.7,-93.4 348.48,0 0,-93.35 -240.87,0 0,-135.45 222.07,0 0,-93.39 -222.07,0 0,-144.66 240.87,0 0,-93.39 -348.48,0 0,560.24"
         style="fill:#fff;fill-opacity:1;fill-rule:nonzero;stroke:none"
         id="path16"
         inkscape:connector-curvature="0" /><path
         d="m 2884.22,1591.2 c 0,102.64 60.64,162.36 202.42,162.36 52.97,0 107.62,-6.74 154.6,-18.51 l -11.95,-91.7 c -46.13,8.42 -99.95,14.31 -139.23,14.31 -74.31,0 -98.22,-25.25 -98.22,-84.97 l 0,-215.36 c 0,-59.72 23.91,-84.98 98.22,-84.98 39.28,0 93.1,5.92 139.23,14.32 l 11.95,-91.69 c -46.98,-11.78 -101.63,-18.52 -154.6,-18.52 -141.78,0 -202.42,59.74 -202.42,162.36 l 0,252.38"
         style="fill:#fff;fill-opacity:1;fill-rule:nonzero;stroke:none"
         id="path18"
         inkscape:connector-curvature="0" /><path
         d="m 3435.97,1609.7 0,-424.82 -105.06,0 0,560.24 143.48,0 216.09,-425.64 0,425.64 105.07,0 0,-560.24 -143.5,0 -216.08,424.82"
         style="fill:#fff;fill-opacity:1;fill-rule:nonzero;stroke:none"
         id="path20"
         inkscape:connector-curvature="0" /><path
         d="m 3915.08,1184.88 107.629,0 0,560.246 -107.629,0 0,-560.246 z"
         style="fill:#fff;fill-opacity:1;fill-rule:nonzero;stroke:none"
         id="path22"
         inkscape:connector-curvature="0" /><path
         d="m 4129.48,1591.2 c 0,102.64 60.63,162.36 202.42,162.36 52.95,0 107.61,-6.74 154.58,-18.51 l -11.95,-91.7 c -46.12,8.42 -99.92,14.31 -139.23,14.31 -74.28,0 -98.22,-25.25 -98.22,-84.97 l 0,-215.36 c 0,-59.72 23.94,-84.98 98.22,-84.98 39.31,0 93.11,5.92 139.23,14.32 l 11.95,-91.69 c -46.97,-11.78 -101.63,-18.52 -154.58,-18.52 -141.79,0 -202.42,59.74 -202.42,162.36 l 0,252.38"
         style="fill:#fff;fill-opacity:1;fill-rule:nonzero;stroke:none"
         id="path24"
         inkscape:connector-curvature="0" /><path
         d="m 4658.16,1354.81 c 0,-53.01 27.33,-84.97 107.6,-84.97 80.3,0 107.63,31.96 107.63,84.97 l 0,220.4 c 0,53 -27.33,84.97 -107.63,84.97 -80.27,0 -107.6,-31.97 -107.6,-84.97 l 0,-220.4 z m 322.86,-5.88 c 0,-93.38 -54.66,-172.47 -215.26,-172.47 -160.55,0 -215.22,79.09 -215.22,172.47 l 0,232.17 c 0,93.38 54.67,172.46 215.22,172.46 160.6,0 215.26,-79.08 215.26,-172.46 l 0,-232.17"
         style="fill:#fff;fill-opacity:1;fill-rule:nonzero;stroke:none"
         id="path26"
         inkscape:connector-curvature="0" /><path
         d="m 2159.26,522.172 256.23,0 0,-44.582 -306.61,0 0,560.27 50.38,0 0,-515.688"
         style="fill:#fff;fill-opacity:1;fill-rule:nonzero;stroke:none"
         id="path28"
         inkscape:connector-curvature="0" /><path
         d="m 2529.94,477.59 50.3789,0 0,560.266 -50.3789,0 0,-560.266 z"
         style="fill:#fff;fill-opacity:1;fill-rule:nonzero;stroke:none"
         id="path30"
         inkscape:connector-curvature="0" /><path
         d="m 2880.96,469.18 c -49.52,0 -111.88,8.41 -160.57,26.89 l 9.39,40.41 c 51.26,-15.14 103.35,-22.699 152.89,-22.699 97.36,0 123.85,28.578 123.85,100.09 0,86.649 -0.85,95.879 -127.27,124.508 -137.5,31.109 -152.87,55.512 -152.87,168.23 0,91.707 34.15,139.641 176.79,139.641 49.54,0 108.47,-8.39 146.92,-19.33 l -5.99,-42.068 c -41.85,9.253 -94.82,16.828 -139.24,16.828 -112.73,0 -128.1,-26.926 -128.1,-96.739 0,-90.851 2.56,-95.07 122.14,-124.5 149.48,-37.011 158,-58.043 158,-164.062 0,-91.668 -31.6,-147.199 -175.94,-147.199"
         style="fill:#fff;fill-opacity:1;fill-rule:nonzero;stroke:none"
         id="path32"
         inkscape:connector-curvature="0" /><path
         d="m 3495.91,663.5 c 0,47.109 -28.19,79.078 -93.95,79.078 l -158.85,0 0,-221.238 173.37,0 c 53.8,0 79.43,26.07 79.43,70.648 l 0,71.512 z m -17.95,270.883 c 0,38.707 -22.2,59.722 -70.89,59.722 l -163.96,0 0,-207.777 146.88,0 c 62.35,0 87.97,31.953 87.97,76.563 l 0,71.492 z M 3192.7,477.59 l 0,560.27 213.52,0 c 76.88,0 122.15,-36.18 122.15,-110.208 l 0,-67.312 c 0,-44.578 -18.8,-74.012 -64.9,-90.852 44.41,-5.886 82.82,-42.078 82.82,-104.297 l 0,-73.203 c 0,-77.386 -57.21,-114.398 -130.66,-114.398 l -222.93,0"
         style="fill:#fff;fill-opacity:1;fill-rule:nonzero;stroke:none"
         id="path34"
         inkscape:connector-curvature="0" /><path
         d="m 3999.8,637.43 0,240.582 c 0,79.929 -39.26,123.668 -148.6,123.668 -109.33,0 -148.62,-43.739 -148.62,-123.668 l 0,-240.582 c 0,-79.918 39.29,-123.649 148.62,-123.649 109.34,0 148.6,43.731 148.6,123.649 z M 3851.2,469.18 c -146.05,0 -199.02,70.679 -199.02,166.558 l 0,243.961 c 0,95.891 52.97,166.551 199.02,166.551 146.06,0 199.01,-70.66 199.01,-166.551 l 0,-243.961 c 0,-95.879 -52.95,-166.558 -199.01,-166.558"
         style="fill:#fff;fill-opacity:1;fill-rule:nonzero;stroke:none"
         id="path36"
         inkscape:connector-curvature="0" /><path
         d="m 4248.37,667.699 234.03,0 -117.04,341.541 -116.99,-341.541 z m 249.38,-42.89 -264.75,0 -52.97,-147.219 -49.55,0 198.16,560.27 74.32,0 198.14,-560.27 -49.53,0 -53.82,147.219"
         style="fill:#fff;fill-opacity:1;fill-rule:nonzero;stroke:none"
         id="path38"
         inkscape:connector-curvature="0" /><path
         d="M 794.797,0 C 794.797,0 0,389.898 0,1117.8 c 0,491.27 0,808.36 0,808.36 l 1592.55,0 c 0,0 0,-317.09 0,-808.36 C 1592.55,389.898 794.797,0 794.797,0"
         style="fill:#05a1e6;fill-opacity:1;fill-rule:evenodd;stroke:none"
         id="path40"
         inkscape:connector-curvature="0" /><path
         d="m 1220.21,1317.98 -66.33,0 0,-498.531 -143.5,0 -0.02,498.531 -66.13,0 0,99.96 275.98,0 0,-99.96"
         style="fill:#ffffff;fill-opacity:1;fill-rule:nonzero;stroke:none"
         id="path42"
         inkscape:connector-curvature="0" /><path
         d="m 579.563,819.781 -143.446,0 0.168,598.159 143.09,0 0.188,-598.159"
         style="fill:#ffffff;fill-opacity:1;fill-rule:nonzero;stroke:none"
         id="path44"
         inkscape:connector-curvature="0" /><path
         d="m 938.137,1756.88 c -118.703,0 -214.899,-61.52 -214.899,-180.23 l -0.039,-916.209 c 0,-100.55 0,-150.41 -71.429,-150.41 -66.411,0 -72.25,49.649 -72.25,122.918 l -0.016,0 c 0,39.551 -32.109,71.641 -71.688,71.641 -39.531,0 -71.632,-32.09 -71.632,-71.641 l -0.129,0 c 0,-100.871 97.05,-152.758 215.715,-152.758 118.679,0 214.894,61.547 214.894,180.25 l 0.066,916.209 c 0,100.55 -0.027,150.39 71.407,150.39 66.423,0 72.243,-49.7 72.243,-122.87 l 0.08,0 c 0,-39.6 32.07,-71.64 71.6,-71.64 39.6,0 71.66,32.04 71.66,71.64 l 0.15,0 c 0,100.87 -97.05,152.71 -215.733,152.71"
         style="fill:#ffffff;fill-opacity:1;fill-rule:nonzero;stroke:none"
         id="path46"
         inkscape:connector-curvature="0" /></g></g></svg>