<?xml version="1.0" standalone="no"?>
<!DOCTYPE svg PUBLIC "-//W3C//DTD SVG 20010904//EN"
 "http://www.w3.org/TR/2001/REC-SVG-20010904/DTD/svg10.dtd">
<svg version="1.0" xmlns="http://www.w3.org/2000/svg"
 width="1080.000000pt" height="567.000000pt" viewBox="0 0 1300.000000 700.000000"
 preserveAspectRatio="xMidYMid meet">
<metadata>
Created by potrace 1.15, written by Peter Selinger 2001-2017
</metadata>
<g fill="#ecf0f1" transform="translate(0.000000,630.000000) scale(0.100000,-0.100000)"
 stroke="none">
<g fill="#F42945">
    <path d="M2425 4390 c-62 -30 -97 -79 -179 -244 -162 -328 -402 -630 -632
    -797 -81 -59 -84 -63 -84 -101 0 -21 9 -56 20 -78 58 -114 207 -136 359 -54
    35 19 65 33 67 31 2 -2 -12 -72 -31 -155 -76 -343 -67 -565 33 -755 59 -114
    145 -187 264 -228 85 -29 252 -24 343 11 191 72 371 239 552 510 108 161 281
    484 360 670 8 19 11 -16 16 -155 6 -205 31 -328 88 -436 42 -77 122 -151 196
    -179 345 -129 775 112 791 445 4 91 -13 139 -59 164 -26 14 -29 13 -83 -36
    -72 -66 -182 -148 -226 -169 -19 -9 -53 -19 -76 -22 -119 -13 -135 55 -153
    658 -10 330 -18 381 -70 475 -41 73 -96 108 -175 113 -79 5 -141 -20 -181 -71
    -15 -20 -117 -206 -227 -414 -274 -519 -365 -670 -537 -898 -93 -123 -158
    -190 -195 -199 -46 -11 -82 10 -108 63 -20 41 -23 60 -22 171 1 187 48 424
    178 896 87 320 98 371 99 494 1 160 -35 245 -124 290 -51 27 -149 26 -204 0z"/>
</g>
<path d="M6977 3734 c-4 -4 -7 -80 -7 -170 l0 -162 -37 9 c-70 16 -206 10
-276 -11 -182 -56 -280 -200 -279 -410 1 -273 154 -421 424 -408 84 4 106 9
160 36 l63 32 20 -25 c19 -23 27 -25 108 -25 l87 0 -2 568 -3 567 -126 3 c-69
1 -128 -1 -132 -4z m-34 -543 l27 -11 0 -174 0 -174 -40 -16 c-50 -20 -139
-21 -184 -2 -73 30 -115 135 -96 236 5 28 14 58 19 68 16 29 67 73 97 82 35
11 139 6 177 -9z"/>
<path d="M5283 3654 c-3 -8 -3 -174 0 -367 5 -372 10 -415 58 -508 49 -98 146
-165 270 -190 83 -16 294 -13 364 6 126 33 203 89 252 182 55 103 63 172 63
553 l0 340 -140 0 -139 0 -3 -352 c-3 -343 -4 -354 -25 -394 -32 -60 -80 -86
-167 -92 -96 -6 -152 11 -198 58 -53 57 -58 94 -58 460 l0 320 -135 0 c-114 0
-137 -3 -142 -16z"/>
<path d="M7600 3402 c-109 -36 -181 -100 -229 -202 -24 -51 -26 -65 -26 -195
0 -138 0 -141 33 -207 57 -116 157 -185 302 -209 139 -23 292 1 378 59 13 9
56 216 43 209 -32 -18 -95 -42 -136 -53 -61 -17 -190 -18 -236 -3 -43 15 -88
55 -105 96 -28 66 -41 63 252 63 l267 0 -6 83 c-11 166 -74 277 -191 337 -65
33 -75 35 -180 37 -86 2 -124 -1 -166 -15z m250 -197 c30 -16 58 -53 70 -96
l9 -29 -160 0 c-121 0 -159 3 -159 13 0 6 10 30 23 52 42 76 136 102 217 60z"/>
<path d="M8595 3403 c-28 -10 -65 -29 -84 -42 l-33 -24 -25 32 c-24 31 -25 31
-119 31 l-94 0 0 -400 0 -400 130 0 130 0 0 270 0 271 43 19 c51 24 117 25
158 4 54 -27 59 -57 59 -324 l0 -240 135 0 136 0 -1 273 -1 272 38 18 c58 27
146 19 181 -16 l27 -27 3 -260 3 -260 135 0 136 0 -4 298 c-5 341 -9 362 -87
443 -55 56 -119 79 -223 79 -82 0 -160 -25 -226 -73 l-48 -34 -17 24 c-10 13
-41 35 -70 50 -69 35 -205 43 -282 16z"/>
<path d="M9553 3388 c2 -7 78 -181 167 -385 l163 -373 -58 -137 c-31 -76 -60
-144 -62 -150 -4 -10 26 -13 128 -13 l134 0 214 518 c118 284 216 525 219 535
4 16 -7 17 -125 17 l-129 0 -83 -242 c-46 -134 -87 -249 -90 -255 -4 -7 -48
101 -98 240 l-91 252 -147 3 c-116 2 -146 0 -142 -10z"/>
</g>
</svg>
